<?xml version="1.0" encoding="UTF-8" standalone="no"?>
<svg
   version="1.1"
   viewBox="0 0 512 512"
   width="512"
   height="512"
   id="svg25"
   sodipodi:docname="io.github.ppgllrd.GNOME-Sign.svg"
   inkscape:export-filename="io.github.ppgllrd.GNOME-Sign.svg"
   inkscape:export-xdpi="96"
   inkscape:export-ydpi="96"
   xmlns:inkscape="http://www.inkscape.org/namespaces/inkscape"
   xmlns:sodipodi="http://sodipodi.sourceforge.net/DTD/sodipodi-0.dtd"
   xmlns="http://www.w3.org/2000/svg"
   xmlns:svg="http://www.w3.org/2000/svg">
  <defs
     id="defs25">
    <inkscape:path-effect
       effect="powerclip"
       message=""
       id="path-effect35"
       is_visible="true"
       lpeversion="1"
       inverse="true"
       flatten="false"
       hide_clip="false" />
    <inkscape:path-effect
       effect="powerclip"
       message=""
       id="path-effect34"
       is_visible="true"
       lpeversion="1"
       inverse="true"
       flatten="false"
       hide_clip="false" />
    <clipPath
       clipPathUnits="userSpaceOnUse"
       id="clipPath33">
      <ellipse
         style="display:none;fill:#ffffff;stroke-width:1.16973"
         id="ellipse33"
         cx="203.96815"
         cy="237.18198"
         rx="20.940235"
         ry="21.25032"
         inkscape:transform-center-x="125.86265"
         inkscape:transform-center-y="-147.69727"
         d="m 224.90839,237.18198 a 20.940235,21.25032 0 0 1 -20.94024,21.25032 20.940235,21.25032 0 0 1 -20.94023,-21.25032 20.940235,21.25032 0 0 1 20.94023,-21.25032 20.940235,21.25032 0 0 1 20.94024,21.25032 z" />
      <path
         id="lpe_path-effect34"
         style="fill:#ffffff;stroke-width:1.16973"
         class="powerclip"
         d="M 160.16,131.6 H 305.32 V 379.51 H 160.16 Z m 64.74839,105.58198 a 20.940235,21.25032 0 0 0 -20.94024,-21.25032 20.940235,21.25032 0 0 0 -20.94023,21.25032 20.940235,21.25032 0 0 0 20.94023,21.25032 20.940235,21.25032 0 0 0 20.94024,-21.25032 z" />
    </clipPath>
    <clipPath
       clipPathUnits="userSpaceOnUse"
       id="clipPath34">
      <ellipse
         style="display:none;fill:#ffffff;stroke-width:1.16973"
         id="ellipse34"
         cx="203.96815"
         cy="237.18198"
         rx="20.940235"
         ry="21.25032"
         inkscape:transform-center-x="125.86265"
         inkscape:transform-center-y="-147.69727"
         d="m 224.90839,237.18198 a 20.940235,21.25032 0 0 1 -20.94024,21.25032 20.940235,21.25032 0 0 1 -20.94023,-21.25032 20.940235,21.25032 0 0 1 20.94023,-21.25032 20.940235,21.25032 0 0 1 20.94024,21.25032 z" />
      <path
         id="lpe_path-effect35"
         style="fill:#ffffff;stroke-width:1.16973"
         class="powerclip"
         d="M 100.42776,108.72 H 247.7 V 368.31 H 100.42776 Z m 124.48063,128.46198 a 20.940235,21.25032 0 0 0 -20.94024,-21.25032 20.940235,21.25032 0 0 0 -20.94023,21.25032 20.940235,21.25032 0 0 0 20.94023,21.25032 20.940235,21.25032 0 0 0 20.94024,-21.25032 z" />
    </clipPath>
  </defs>
  <sodipodi:namedview
     id="namedview25"
     pagecolor="#ffffff"
     bordercolor="#000000"
     borderopacity="0.25"
     inkscape:showpageshadow="2"
     inkscape:pageopacity="0.0"
     inkscape:pagecheckerboard="0"
     inkscape:deskcolor="#d1d1d1">
    <inkscape:page
       x="0"
       y="0"
       width="512"
       height="512"
       id="page2"
       margin="0"
       bleed="0" />
  </sodipodi:namedview>
  <g
     id="g36"
     transform="rotate(-6.8585282,143.27552,306.5294)">
    <ellipse
       style="fill:#d10000"
       id="path27"
       transform="rotate(21.105937)"
       ry="101.35284"
       rx="30.112076"
       cy="201.05331"
       cx="258.00934" />
    <path
       fill="#006ffe"
       d="m 261.14,32.38 -38.73156,105.89 -3.08709,-1.37 q -0.46688,-0.79 -0.75272,-0.31 l -10.42369,-4.82 q -0.21915,-0.84 -0.80036,-0.34 l -11.57659,-5.57 q -0.46688,-0.87 -1.45779,-0.8 l -6.42192,-3.13 q -0.36206,-0.88 -0.75271,-0.31 l -14.16823,-5.9 q -2.01995,-1.31 -4.01131,0.17 l -3.15379,1.39 q -0.91469,-0.03 -0.72413,0.53 l -3.63019,3.51 -0.61932,-0.39 q 16.83608,-46.56 33.81508,-93.05 c 3.76358,-10.31 5.774,-18.55 16.12147,-18.08 q 2.82984,0.13 10.28078,3.7 19.96128,9.59 40.09407,18.88 z"
       id="path18"
       style="stroke-width:0.976118" />
    <path
       fill="#0051c4"
       d="m 276.60371,175.8 c -0.62748,-1.24 -1.04795,-2.63667 -1.26142,-4.19 -0.30403,-2.24667 -0.58219,-3.66 -0.83447,-4.24 -1.90183,-4.38 -5.27855,-6.54 -9.80996,-8.68 -1.86302,-0.88 -16.22701,-7.46667 -43.09199,-19.76 -0.28462,-0.12667 -0.58867,-0.23667 -0.9121,-0.33 L 220.49,138.27 259.93358,32.38 c 15.2664,7.026667 30.53926,14.03 45.8186,21.01 7.76257,3.546667 10.76734,9.87 9.01429,18.97 -0.29757,1.546667 -1.25172,4.323333 -2.86245,8.33 -0.86036,2.133333 -1.91153,4.876667 -3.15355,8.23 -10.68647,28.83333 -21.40206,57.79333 -32.14676,86.88 z"
       id="path19"
       sodipodi:nodetypes="ccccccccccccc"
       style="stroke-width:0.985049" />
    <path
       fill="#0051c4"
       d="m 170.6,113.72 -4.21,0.17 q 2.09,-1.48 4.21,-0.17 z"
       id="path20" />
    <path
       fill="#deebef"
       d="m 190.6,113.72 14.87,5.9 q 0.36,0.06 0.79,0.31 l 6.74,3.13 1.53,0.8 12.15,5.57 0.84,0.34 10.94,4.82 0.79,0.31 3.24,1.37 0.21,0.33 -32.53,85.31 q -11.04,-3.72 -16.53,6.71 -1.39,2.65 -2.14,4.62 -23.34,61.28 -46.69,122.56 -0.58,1.53 -1.15,3.74 -0.46,1.82 -1.09,3.77 l -37,-141.06 a 1.91,1.84 -55.3 0 1 -0.07,-0.43 q -0.22,-3.19 0.23,-4.83 c 0.98,-3.54 2.97,-6.59 5.42,-9.79 q 29.38,-38.36 62.26,-81.54 2.22,-2.91 4.2,-5.92 0.52,-0.42 0.9,-0.42 l 3.81,-3.51 q 0.42,-0.19 0.76,-0.53 l 3.31,-1.39 z"
       id="path21"
       clip-path="url(#clipPath34)"
       inkscape:path-effect="#path-effect35"
       inkscape:original-d="m 190.6,113.72 14.87,5.9 q 0.36,0.06 0.79,0.31 l 6.74,3.13 1.53,0.8 12.15,5.57 0.84,0.34 10.94,4.82 0.79,0.31 3.24,1.37 0.21,0.33 -32.53,85.31 q -11.04,-3.72 -16.53,6.71 -1.39,2.65 -2.14,4.62 -23.34,61.28 -46.69,122.56 -0.58,1.53 -1.15,3.74 -0.46,1.82 -1.09,3.77 l -37,-141.06 a 1.91,1.84 -55.3 0 1 -0.07,-0.43 q -0.22,-3.19 0.23,-4.83 c 0.98,-3.54 2.97,-6.59 5.42,-9.79 q 29.38,-38.36 62.26,-81.54 2.22,-2.91 4.2,-5.92 0.52,-0.42 0.9,-0.42 l 3.81,-3.51 q 0.42,-0.19 0.76,-0.53 l 3.31,-1.39 z"
       transform="translate(-20)" />
    <path
       fill="#0051c4"
       d="m 158.51,119.32 q -0.38,0 -0.9,0.42 0.25,-0.51 0.25,-0.81 z"
       id="path22" />
    <path
       fill="#a1d8f2"
       d="m 300.32,173.8 c -0.55333,2.23333 -1.06333,6.05667 -1.53,11.47 -2.85333,33.2 -5.90333,68.75333 -9.15,106.66 -0.44,5.08 -20.03752,18.45116 -24.73752,21.3245 -35.85334,21.9 -56.54581,35.46883 -96.13248,59.4955 -1.02,0.62 -2.22333,1.20667 -3.61,1.76 1.85333,-2.86667 3.19333,-5.39 4.02,-7.57 15.54,-40.78667 31.11333,-81.56 46.72,-122.32 3.47,-9.08 3.74,-17.16 -5.73,-22.71 L 242.7,136.6 c 0.33333,0.0933 0.64667,0.20333 0.94,0.33 27.68667,12.29333 42.49,18.88 44.41,19.76 4.67,2.14 8.15,4.3 10.11,8.68 0.26,0.58 0.54667,1.99333 0.86,4.24 0.22,1.55333 0.65333,2.95 1.3,4.19 z"
       id="path23"
       sodipodi:nodetypes="ccccccccccccccc"
       clip-path="url(#clipPath33)"
       inkscape:path-effect="#path-effect34"
       inkscape:original-d="m 300.32,173.8 c -0.55333,2.23333 -1.06333,6.05667 -1.53,11.47 -2.85333,33.2 -5.90333,68.75333 -9.15,106.66 -0.44,5.08 -20.03752,18.45116 -24.73752,21.3245 -35.85334,21.9 -56.54581,35.46883 -96.13248,59.4955 -1.02,0.62 -2.22333,1.20667 -3.61,1.76 1.85333,-2.86667 3.19333,-5.39 4.02,-7.57 15.54,-40.78667 31.11333,-81.56 46.72,-122.32 3.47,-9.08 3.74,-17.16 -5.73,-22.71 L 242.7,136.6 c 0.33333,0.0933 0.64667,0.20333 0.94,0.33 27.68667,12.29333 42.49,18.88 44.41,19.76 4.67,2.14 8.15,4.3 10.11,8.68 0.26,0.58 0.54667,1.99333 0.86,4.24 0.22,1.55333 0.65333,2.95 1.3,4.19 z"
       transform="translate(-20)"
       style="fill:#bbdbeb;fill-opacity:1" />
  </g>
  <path
     fill="#d10000"
     d="m 70.292918,465.93783 a 0.21,0.2 0.5 0 0 0.28,0.28 q 14.300002,-8.24 47.820002,-28.27 c 5.57,-3.33 13.83,-7.75 20.29,-11.09 19.02,-9.84 37.39,-16.48 58.48,-18.27 q 12.34,-1.04 20.08,1.92 c 10.72,4.1 18.83,12.54 22.63,23.27 q 5.5,15.55 -2.71,31.41 a 0.24,0.24 0 0 0 0.25,0.34 q 6.49,-1.12 12.1,-3.59 22.15,-9.75 38.81,-17.96 c 7.89,-3.88 16.94,-7.67 24.48,-9.87 9.71,-2.84 22.04,-2.6 29.96,4.14 q 5.49,4.67 9.54,7.45 c 5.04,3.47 10.94,3.8 17.69,3.13 22.13,-2.19 42.17,-10.46 62.56,-17.36 10.23,-3.46 18.95,-7.47 29.23,-11.34 5.22,-1.96 10.28,-5.08 15.85,-6.58 7.18,-1.94 13.46,0.34 15.32,7.84 2.08,8.37 -3.55,13.85 -10.5,16.99 q -36.73,16.56 -69.85,26.86 -13.94,4.34 -34.38,8.01 c -12.75,2.3 -29.01,2.28 -39.15,-6.93 -4.49,-4.08 -9.57,-8.86 -15.29,-9.16 q -2.36,-0.12 -7.24,1.9 c -12.62,5.22 -23.23,11.33 -35.65,16.7 q -14.85,6.42 -17.01,7.27 c -14.42,5.68 -48.15,15.7 -51.74,-9.15 q -1.1,-7.63 1.89,-14.73 c 1.54,-3.65 3.25,-8.08 3.35,-12.09 q 0.29,-12.68 -13.22,-14.7 c -8.17,-1.23 -15.53,0.32 -23.99,2.7 -9.2,2.59 -19.12,7.88 -26.12,11.22 q -5.07,2.42 -12.07,6.47 -31.92,18.46 -39.49,23.44 -21.81,14.38 -44.050002,25.43 c -6.57,3.27 -14.16,5.19 -20.48,0.68 -7.66,-5.45 -5.43,-17.64 -1.98,-25.15 3.42,-7.43 7.48,-15.47 12.05,-22.18 q 14.23,-20.88 31.580002,-40.7 2.78,-3.18 17.26,-17.85 3.23,-3.28 5.63,-5.13 c 5.27,-4.09 9.63,-7.66 13.58,-11.86 6.57,-6.99 14.62,-4.13 20.86,1.36 a 0.71,0.69 35.7 0 1 0.15,0.87 q -0.33,0.59 -2.73,4.12 c -19.15,28.1 -46.98,51.86 -64.070002,80.16 z"
     id="path25" />
</svg>
